# xmcd
# 
# Track frame offsets:
#     150
#     20720
#     38740
#     55872
#     72859
#     90467
#     109209
#     124205
#     142702
#     160669
#     178152
#     194292
#     211374
#     226457
# 
# Disc length: 3244
# 
# Revision: 30
# Processed by: cddbd v1.5.2PL0 Copyright (c) Steve Scherf et al.
# Submitted via: fre:ac v1.0.31
# 
DISCID=be0caa0e
DTITLE=Carrie Underwood - Some Hearts
DYEAR=2005
DGENRE=Folk/Country
TTITLE0=Wasted
TTITLE1=Don't Forget to Remember Me
TTITLE2=Some Hearts
TTITLE3=Jesus, Take the Wheel
TTITLE4=The Night Before (Life Goes On)
TTITLE5=Lessons Learned
TTITLE6=Before He Cheats
TTITLE7=Starts with Goodbye
TTITLE8=I Just Can't Live a Lie
TTITLE9=We're Young and Beautiful
TTITLE10=That's Where It Is
TTITLE11=Whenever You Remember
TTITLE12=I Ain't in Checotah Anymore
TTITLE13=Inside Your Heaven
EXTD=YEAR: 2005
EXTT0=
EXTT1=
EXTT2=
EXTT3=
EXTT4=
EXTT5=
EXTT6=
EXTT7=
EXTT8=
EXTT9=
EXTT10=
EXTT11=
EXTT12=
EXTT13=
PLAYORDER=
